<svg width="909" height="379" viewBox="0 0 909 379" fill="none" xmlns="http://www.w3.org/2000/svg">
<path d="M286.294 223.131V49.6743H215.371L98.6523 235.897V283.72H222.058V336H286.294V283.72H314.46V223.131H286.294ZM222.058 135.592V223.131H169.575L222.058 135.592Z" fill="white"/>
<path d="M454.798 341.066C488.233 341.066 515.589 327.287 536.663 299.728C557.535 272.169 568.072 236.505 568.072 192.736C568.072 149.169 557.535 113.505 536.663 85.9463C515.589 58.3877 488.233 44.6084 454.798 44.6084C421.565 44.6084 394.412 58.3877 373.54 85.9463C352.466 113.505 341.929 149.169 341.929 192.736C341.929 236.505 352.466 272.169 373.54 299.728C394.412 327.287 421.565 341.066 454.798 341.066ZM454.798 279.059C441.018 279.059 429.873 270.954 421.16 254.743C412.447 238.734 407.989 218.065 407.989 192.736C407.989 167.609 412.447 146.94 421.16 130.729C429.873 114.518 441.018 106.413 454.798 106.413C468.982 106.413 480.533 114.518 489.246 130.526C497.959 146.535 502.215 167.406 502.215 192.736C502.215 218.268 497.757 238.937 489.043 254.945C480.33 270.954 468.78 279.059 454.798 279.059Z" fill="white"/>
<path d="M783.79 223.131V49.6743H712.867L596.148 235.897V283.72H719.554V336H783.79V283.72H811.956V223.131H783.79ZM719.554 135.592V223.131H667.071L719.554 135.592Z" fill="white"/>
<path d="M0.206779 279.136C0.292412 279.424 0.471742 279.676 0.716364 279.85C0.960987 280.025 1.25691 280.113 1.55727 280.101H83.1657C84.0529 280.052 84.8874 279.664 85.4975 279.018C86.1076 278.372 86.4469 277.517 86.4455 276.628V228.01C86.4546 227.401 86.2938 226.802 85.9813 226.279C85.6687 225.756 85.2167 225.33 84.6758 225.05C84.135 224.769 83.5267 224.645 82.9193 224.691C82.3118 224.737 81.7291 224.951 81.2365 225.309L0.206779 277.593C0.0713158 277.827 0 278.094 0 278.365C0 278.635 0.0713158 278.902 0.206779 279.136Z" fill="#F6921E"/>
<path d="M100.339 292.448C99.8912 292.447 99.4483 292.538 99.0373 292.715C98.6263 292.892 98.2557 293.151 97.9485 293.476C97.6413 293.801 97.4039 294.186 97.2509 294.607C97.0979 295.027 97.0325 295.474 97.0589 295.921V377.337C96.9403 377.542 96.8779 377.775 96.8779 378.012C96.8779 378.249 96.9403 378.482 97.0589 378.687C98.0235 378.687 98.4094 378.687 98.6023 378.687L151.85 297.657C152.151 297.138 152.311 296.549 152.317 295.949C152.322 295.349 152.171 294.757 151.88 294.233C151.588 293.708 151.166 293.268 150.653 292.955C150.141 292.642 149.556 292.468 148.956 292.448H100.339Z" fill="#F05A28"/>
<path d="M908.24 279.136C908.154 279.424 907.975 279.676 907.73 279.85C907.485 280.025 907.189 280.113 906.889 280.101H825.281C824.393 280.052 823.559 279.664 822.949 279.018C822.339 278.372 821.999 277.517 822.001 276.628V228.01C821.992 227.401 822.152 226.802 822.465 226.279C822.778 225.756 823.23 225.33 823.77 225.05C824.311 224.769 824.92 224.645 825.527 224.691C826.135 224.737 826.717 224.951 827.21 225.309L908.24 277.593C908.375 277.827 908.446 278.094 908.446 278.365C908.446 278.635 908.375 278.902 908.24 279.136V279.136Z" fill="#F6921E"/>
<path d="M842.978 292.448C843.425 292.447 843.868 292.538 844.279 292.715C844.69 292.892 845.061 293.151 845.368 293.476C845.675 293.801 845.913 294.186 846.066 294.607C846.219 295.027 846.284 295.474 846.258 295.921V377.337C846.376 377.542 846.438 377.775 846.438 378.012C846.438 378.249 846.376 378.482 846.258 378.687C845.293 378.687 844.907 378.687 844.714 378.687L791.466 297.657C791.166 297.138 791.005 296.549 791 295.949C790.995 295.349 791.145 294.757 791.437 294.233C791.728 293.708 792.151 293.268 792.663 292.955C793.175 292.642 793.76 292.468 794.36 292.448H842.978Z" fill="#F05A28"/>
<path d="M421.416 16.334V0.220305H431.141V1.95126H423.367V7.39592H430.637V9.12688H423.367V14.603H431.267V16.334H421.416Z" fill="white"/>
<path d="M434.266 16.334V0.220305H439.711C440.969 0.220305 442.003 0.435363 442.811 0.86548C443.618 1.29035 444.216 1.87521 444.604 2.62004C444.993 3.36488 445.187 4.212 445.187 5.16141C445.187 6.11081 444.993 6.95269 444.604 7.68703C444.216 8.42138 443.621 8.99837 442.818 9.41799C442.016 9.83237 440.99 10.0396 439.742 10.0396H435.336V8.27713H439.679C440.539 8.27713 441.232 8.15125 441.756 7.89947C442.286 7.64769 442.669 7.29101 442.905 6.82942C443.146 6.36259 443.267 5.80658 443.267 5.16141C443.267 4.51623 443.146 3.95236 442.905 3.46979C442.664 2.98722 442.278 2.6148 441.748 2.35253C441.219 2.08502 440.518 1.95126 439.648 1.95126H436.217V16.334H434.266ZM441.851 9.0954L445.816 16.334H443.55L439.648 9.0954H441.851Z" fill="white"/>
<path d="M448.046 16.334V0.220305H453.491C454.75 0.220305 455.783 0.435363 456.591 0.86548C457.399 1.29035 457.997 1.87521 458.385 2.62004C458.773 3.36488 458.967 4.212 458.967 5.16141C458.967 6.11081 458.773 6.95269 458.385 7.68703C457.997 8.42138 457.401 8.99837 456.599 9.41799C455.796 9.83237 454.771 10.0396 453.522 10.0396H449.116V8.27713H453.459C454.32 8.27713 455.012 8.15125 455.537 7.89947C456.066 7.64769 456.449 7.29101 456.685 6.82942C456.927 6.36259 457.047 5.80658 457.047 5.16141C457.047 4.51623 456.927 3.95236 456.685 3.46979C456.444 2.98722 456.058 2.6148 455.529 2.35253C454.999 2.08502 454.299 1.95126 453.428 1.95126H449.998V16.334H448.046ZM455.631 9.0954L459.596 16.334H457.33L453.428 9.0954H455.631Z" fill="white"/>
<path d="M475.422 8.27713C475.422 9.97662 475.116 11.4453 474.502 12.6832C473.888 13.9211 473.046 14.8758 471.976 15.5472C470.906 16.2186 469.684 16.5543 468.31 16.5543C466.936 16.5543 465.713 16.2186 464.643 15.5472C463.573 14.8758 462.731 13.9211 462.118 12.6832C461.504 11.4453 461.197 9.97662 461.197 8.27713C461.197 6.57764 461.504 5.10895 462.118 3.87105C462.731 2.63316 463.573 1.67851 464.643 1.0071C465.713 0.335701 466.936 0 468.31 0C469.684 0 470.906 0.335701 471.976 1.0071C473.046 1.67851 473.888 2.63316 474.502 3.87105C475.116 5.10895 475.422 6.57764 475.422 8.27713ZM473.534 8.27713C473.534 6.88187 473.301 5.7043 472.834 4.7444C472.372 3.78451 471.745 3.05803 470.953 2.56497C470.167 2.07191 469.285 1.82538 468.31 1.82538C467.334 1.82538 466.45 2.07191 465.658 2.56497C464.871 3.05803 464.245 3.78451 463.778 4.7444C463.316 5.7043 463.085 6.88187 463.085 8.27713C463.085 9.67239 463.316 10.85 463.778 11.8099C464.245 12.7698 464.871 13.4962 465.658 13.9893C466.45 14.4824 467.334 14.7289 468.31 14.7289C469.285 14.7289 470.167 14.4824 470.953 13.9893C471.745 13.4962 472.372 12.7698 472.834 11.8099C473.301 10.85 473.534 9.67239 473.534 8.27713Z" fill="white"/>
<path d="M478.312 16.334V0.220305H483.756C485.015 0.220305 486.048 0.435363 486.856 0.86548C487.664 1.29035 488.262 1.87521 488.65 2.62004C489.038 3.36488 489.232 4.212 489.232 5.16141C489.232 6.11081 489.038 6.95269 488.65 7.68703C488.262 8.42138 487.667 8.99837 486.864 9.41799C486.061 9.83237 485.036 10.0396 483.788 10.0396H479.382V8.27713H483.725C484.585 8.27713 485.277 8.15125 485.802 7.89947C486.332 7.64769 486.715 7.29101 486.951 6.82942C487.192 6.36259 487.312 5.80658 487.312 5.16141C487.312 4.51623 487.192 3.95236 486.951 3.46979C486.709 2.98722 486.324 2.6148 485.794 2.35253C485.264 2.08502 484.564 1.95126 483.693 1.95126H480.263V16.334H478.312ZM485.896 9.0954L489.862 16.334H487.596L483.693 9.0954H485.896Z" fill="white"/>
<path d="M387.146 9.20898H255" stroke="#EF4133" stroke-width="4" stroke-linecap="round"/>
<path d="M654.998 9.20898H522.852" stroke="#EF4133" stroke-width="4" stroke-linecap="round"/>
</svg>
