<svg width="11" height="11" viewBox="0 0 11 11" fill="none" xmlns="http://www.w3.org/2000/svg">
<path d="M0.0147691 3.88939C0.0208854 3.90997 0.0336939 3.92792 0.0511659 3.9404C0.0686379 3.95288 0.0897744 3.95918 0.111227 3.95829H5.94006C6.00343 3.95476 6.06303 3.92708 6.10661 3.88094C6.15019 3.8348 6.17442 3.77371 6.17432 3.71025V0.237751C6.17497 0.194243 6.16349 0.151414 6.14116 0.114066C6.11884 0.0767166 6.08655 0.0463238 6.04792 0.0262941C6.00929 0.00626447 5.96585 -0.00261027 5.92246 0.000664446C5.87907 0.00393916 5.83745 0.0192348 5.80227 0.0448353L0.0147691 3.77915C0.00509369 3.79591 0 3.81492 0 3.83427C0 3.85362 0.00509369 3.87263 0.0147691 3.88939Z" fill="#F6921E"/>
<path d="M7.16661 4.83984C7.13466 4.83979 7.10302 4.84627 7.07367 4.8589C7.04431 4.87152 7.01784 4.89002 6.9959 4.91325C6.97396 4.93649 6.957 4.96397 6.94607 4.994C6.93514 5.02403 6.93048 5.05598 6.93236 5.08788V10.9029C6.92389 10.9176 6.91943 10.9342 6.91943 10.9512C6.91943 10.9681 6.92389 10.9847 6.93236 10.9994C7.00126 10.9994 7.02882 10.9994 7.04259 10.9994L10.8458 5.2119C10.8673 5.17478 10.8787 5.13274 10.8791 5.08987C10.8795 5.047 10.8687 5.00477 10.8479 4.96729C10.8271 4.92982 10.7969 4.89838 10.7603 4.87604C10.7237 4.8537 10.682 4.84123 10.6391 4.83984H7.16661Z" fill="#F05A28"/>
</svg>
