<svg width="24" height="24" viewBox="0 0 24 24" fill="none" xmlns="http://www.w3.org/2000/svg">
<g id="Iconly/Light-Outline/Arrow - Down">
<g id="Arrow - Down">
<path id="Combined Shape" fill-rule="evenodd" clip-rule="evenodd" d="M13.0173 4.64823C12.9676 4.28215 12.6538 4 12.2741 4C11.8599 4 11.5241 4.33579 11.5241 4.75V17.9333L6.78094 13.171L6.69697 13.0982C6.40381 12.8797 5.9871 12.9031 5.72028 13.1688C5.42678 13.4611 5.4258 13.9359 5.71808 14.2294L11.7324 20.2687C11.7669 20.3047 11.8049 20.3372 11.8458 20.3658C12.1387 20.5703 12.545 20.5414 12.806 20.2794L18.83 14.2294L18.9024 14.1451C19.1196 13.851 19.0945 13.4344 18.8277 13.1687C18.5342 12.8765 18.0593 12.8775 17.767 13.171L13.0241 17.9345V4.75L13.0173 4.64823Z" fill="white"/>
</g>
</g>
</svg>
