<svg width="106" height="106" viewBox="0 0 106 106" fill="none" xmlns="http://www.w3.org/2000/svg">
<path d="M0 0H106V82C106 95.2548 95.2548 106 82 106H0V0Z" fill="#161616"/>
<path fill-rule="evenodd" clip-rule="evenodd" d="M54.0178 45.6482C53.9681 45.2822 53.6543 45 53.2746 45C52.8604 45 52.5246 45.3358 52.5246 45.75V58.9333L47.7814 54.171L47.6975 54.0982C47.4043 53.8797 46.9876 53.9031 46.7208 54.1688C46.4273 54.4611 46.4263 54.9359 46.7186 55.2294L52.7329 61.2687C52.7674 61.3047 52.8054 61.3372 52.8463 61.3658C53.1392 61.5703 53.5455 61.5414 53.8065 61.2794L59.8305 55.2294L59.9029 55.1451C60.1201 54.851 60.095 54.4344 59.8282 54.1687C59.5347 53.8765 59.0598 53.8775 58.7675 54.171L54.0246 58.9345V45.75L54.0178 45.6482Z" fill="white"/>
</svg>
