<svg width="11" height="6" viewBox="0 0 11 6" fill="none" xmlns="http://www.w3.org/2000/svg">
<path d="M0.87793 0.793375C0.87793 0.415698 1.17105 0.122574 1.54309 0.122574C1.72911 0.122574 1.89822 0.195855 2.02787 0.325506L5.88357 4.27139L9.72799 0.325506C9.85764 0.195855 10.0324 0.122574 10.2128 0.122574C10.5848 0.122574 10.8779 0.415698 10.8779 0.793375C10.8779 0.973758 10.8103 1.13159 10.6863 1.25561L6.40217 5.64118C6.25561 5.79901 6.07522 5.87793 5.87793 5.87793C5.68064 5.87793 5.51153 5.79901 5.35933 5.64681L1.06959 1.26124C0.945573 1.13159 0.87793 0.973758 0.87793 0.793375Z" fill="#353D46"/>
</svg>
