<svg width="44" height="44" viewBox="0 0 44 44" fill="none" xmlns="http://www.w3.org/2000/svg">
<rect width="44" height="44" rx="22" fill="#231F20"/>
<path d="M26.7214 25.249C24.9441 25.2732 23.2289 24.5953 21.9484 23.3625C20.6679 22.1297 19.9253 20.4416 19.8821 18.6646C19.8824 17.7927 20.0593 16.9298 20.4022 16.1282C20.745 15.3265 21.2467 14.6025 21.8769 14C20.0086 14.1845 18.2739 15.0516 17.0051 16.4353C15.7362 17.819 15.0223 19.6221 15 21.4993C15.0453 23.5289 15.8931 25.4577 17.3578 26.8634C18.8225 28.269 20.7846 29.0368 22.8143 28.9986C24.3258 29.0118 25.8087 28.5868 27.0837 27.775C28.3587 26.9631 29.3712 25.7992 29.9986 24.4241C28.9904 24.9635 27.8649 25.2468 26.7214 25.249V25.249Z" stroke="white" stroke-width="1.3" stroke-linecap="round" stroke-linejoin="round"/>
</svg>
