<svg width="19" height="14" viewBox="0 0 19 14" fill="none" xmlns="http://www.w3.org/2000/svg">
<path fill-rule="evenodd" clip-rule="evenodd" d="M16.4062 1.03125H2.59376C1.71491 1.03125 1 1.74616 1 2.62501V12.1875C1 13.0664 1.71491 13.7813 2.59376 13.7813H16.4062C17.2851 13.7813 18 13.0664 18 12.1875V2.62501C18 1.74616 17.2851 1.03125 16.4062 1.03125ZM16.4062 2.09375C16.4784 2.09375 16.5471 2.10872 16.6099 2.13487L9.5 8.29704L2.39011 2.13487C2.45288 2.10876 2.52155 2.09375 2.59373 2.09375H16.4062ZM2.0625 12.1875C2.0625 12.4806 2.30064 12.7187 2.59376 12.7187H16.4062C16.6994 12.7187 16.9375 12.4806 16.9375 12.1875V3.25741L9.84812 9.40155C9.74798 9.4882 9.62399 9.53125 9.5 9.53125C9.37601 9.53125 9.25202 9.48817 9.15188 9.40155L2.0625 3.25741V12.1875Z" fill="#F6921E"/>
<path d="M16.6099 2.13487L16.6754 2.21044L16.7974 2.10467L16.6483 2.04256L16.6099 2.13487ZM9.5 8.29704L9.43451 8.3726L9.5 8.42937L9.56549 8.3726L9.5 8.29704ZM2.39011 2.13487L2.35169 2.04255L2.20251 2.10462L2.32461 2.21044L2.39011 2.13487ZM16.9375 12.1875L17.0375 12.1875V12.1875H16.9375ZM16.9375 3.25741H17.0375V3.03842L16.872 3.18184L16.9375 3.25741ZM9.84812 9.40155L9.91356 9.47717L9.91361 9.47712L9.84812 9.40155ZM9.15188 9.40155L9.08639 9.47712L9.08646 9.47718L9.15188 9.40155ZM2.0625 3.25741L2.12799 3.18184L1.9625 3.03842V3.25741H2.0625ZM2.59376 1.13125H16.4062V0.93125H2.59376V1.13125ZM1.1 2.62501C1.1 1.80139 1.77014 1.13125 2.59376 1.13125V0.93125C1.65968 0.93125 0.9 1.69093 0.9 2.62501H1.1ZM1.1 12.1875V2.62501H0.9V12.1875H1.1ZM2.59376 13.6813C1.77014 13.6813 1.1 13.0111 1.1 12.1875H0.9C0.9 13.1216 1.65968 13.8813 2.59376 13.8813V13.6813ZM16.4062 13.6813H2.59376V13.8813H16.4062V13.6813ZM17.9 12.1875C17.9 13.0111 17.2299 13.6813 16.4062 13.6813V13.8813C17.3403 13.8813 18.1 13.1216 18.1 12.1875H17.9ZM17.9 2.62501V12.1875H18.1V2.62501H17.9ZM16.4062 1.13125C17.2299 1.13125 17.9 1.80139 17.9 2.62501H18.1C18.1 1.69093 17.3403 0.93125 16.4062 0.93125V1.13125ZM16.6483 2.04256C16.5741 2.01164 16.4924 1.99375 16.4062 1.99375V2.19375C16.4644 2.19375 16.5201 2.2058 16.5714 2.22718L16.6483 2.04256ZM9.56549 8.3726L16.6754 2.21044L16.5444 2.05931L9.43451 8.22147L9.56549 8.3726ZM2.32461 2.21044L9.43451 8.3726L9.56549 8.22147L2.4556 2.05931L2.32461 2.21044ZM2.59373 1.99375C2.50753 1.99375 2.42585 2.01169 2.35169 2.04255L2.42852 2.2272C2.47991 2.20582 2.53556 2.19375 2.59373 2.19375V1.99375ZM16.4062 1.99375H2.59373V2.19375H16.4062V1.99375ZM2.59376 12.6187C2.35587 12.6187 2.1625 12.4254 2.1625 12.1875H1.9625C1.9625 12.5359 2.24542 12.8187 2.59376 12.8187V12.6187ZM16.4062 12.6187H2.59376V12.8187H16.4062V12.6187ZM16.8375 12.1875C16.8375 12.4254 16.6441 12.6187 16.4062 12.6187V12.8187C16.7546 12.8187 17.0375 12.5359 17.0375 12.1875L16.8375 12.1875ZM16.8375 3.25741V12.1875H17.0375V3.25741H16.8375ZM9.91361 9.47712L17.003 3.33298L16.872 3.18184L9.78263 9.32598L9.91361 9.47712ZM9.5 9.63125C9.64718 9.63125 9.79461 9.58009 9.91356 9.47717L9.78269 9.32593C9.70134 9.39632 9.6008 9.43125 9.5 9.43125V9.63125ZM9.08646 9.47718C9.20538 9.58005 9.35281 9.63125 9.5 9.63125V9.43125C9.39922 9.43125 9.29866 9.39629 9.2173 9.32592L9.08646 9.47718ZM1.997 3.33298L9.08639 9.47712L9.21737 9.32598L2.12799 3.18184L1.997 3.33298ZM2.1625 12.1875V3.25741H1.9625V12.1875H2.1625Z" fill="#F7941D"/>
</svg>
