<svg width="22" height="23" viewBox="0 0 22 23" fill="none" xmlns="http://www.w3.org/2000/svg">
<g id="Group 172">
<path id="Subtract" fill-rule="evenodd" clip-rule="evenodd" d="M0 11.2773C0 5.20314 4.9258 0.277344 11 0.277344C17.0742 0.277344 22 5.20314 22 11.2773C22 17.3515 17.0742 22.2773 11 22.2773C4.9258 22.2773 0 17.3515 0 11.2773ZM8.5411 5.35608C9.35783 5.28278 10.1783 5.26069 10.9978 5.28992C11.8184 5.26055 12.6401 5.28264 13.4579 5.35608C13.9577 5.35448 14.4535 5.44417 14.9211 5.62071C15.3244 5.75133 15.6896 5.97844 15.9852 6.28231C16.2935 6.57937 16.5238 6.94788 16.6556 7.35519C16.8325 7.82269 16.9226 8.31857 16.9214 8.81842C16.9946 9.63514 17.0167 10.4557 16.9875 11.2751C16.9875 12.2457 16.963 12.701 16.9439 13.0576C16.9315 13.2873 16.9214 13.476 16.9214 13.7352C16.9226 14.237 16.8317 14.7348 16.6534 15.2039C16.3738 16.0155 15.7361 16.6533 14.9244 16.9329C14.4569 17.1098 13.961 17.1999 13.4612 17.1986C12.6434 17.272 11.8217 17.2941 11.0011 17.2648C10.1806 17.2941 9.35893 17.272 8.5411 17.1986C8.03773 17.1981 7.53875 17.105 7.06904 16.924C6.66578 16.7934 6.30051 16.5663 6.00497 16.2625C5.7011 15.9669 5.47399 15.6017 5.34337 15.1984C5.16682 14.7308 5.07714 14.235 5.07873 13.7352C5.0053 12.9173 4.9832 12.0957 5.01257 11.2751C4.98334 10.4557 5.00544 9.63514 5.07873 8.81842C5.04256 8.31333 5.13354 7.80723 5.34337 7.34637C5.47399 6.94311 5.7011 6.57785 6.00497 6.28231C6.30207 5.97768 6.66932 5.75052 7.07456 5.62071C7.54316 5.44377 8.0402 5.35408 8.5411 5.35608ZM13.3903 6.41999C12.5947 6.34584 11.795 6.32374 10.9965 6.35384C10.1963 6.32538 9.39518 6.34933 8.59817 6.42551C8.21226 6.42081 7.8289 6.48851 7.46794 6.62509C7.19733 6.69279 6.96154 6.85863 6.80634 7.09041C6.61474 7.28288 6.45738 7.50662 6.34101 7.752C6.20443 8.11296 6.13673 8.49632 6.14143 8.88223C6.06728 9.67789 6.04518 10.4776 6.07527 11.2761C6.07527 12.2655 6.10071 12.7181 6.12004 13.062C6.13188 13.2727 6.14143 13.4425 6.14143 13.67C6.13687 14.0555 6.20457 14.4385 6.34101 14.7991C6.57364 15.2974 6.97467 15.6977 7.47345 15.9293C7.83441 16.0659 8.21777 16.1336 8.60368 16.1289C9.39935 16.203 10.199 16.2251 10.9976 16.1951C11.987 16.1951 12.4396 16.1696 12.7835 16.1503C12.9942 16.1384 13.164 16.1289 13.3915 16.1289C13.777 16.1335 14.16 16.0658 14.5206 15.9293C15.0183 15.6975 15.4185 15.2977 15.6508 14.8002C15.7874 14.4392 15.8551 14.0559 15.8504 13.67C15.9246 12.8739 15.9467 12.0739 15.9166 11.275C15.9166 10.2856 15.8911 9.83295 15.8718 9.48907C15.8599 9.27842 15.8504 9.10857 15.8504 8.88113C15.8552 8.49485 15.7875 8.1111 15.6508 7.7498C15.4187 7.25185 15.0185 6.85166 14.5206 6.61958C14.1596 6.48299 13.7763 6.4153 13.3903 6.41999ZM10.9964 8.21622C10.1812 8.20297 9.39548 8.52098 8.81895 9.0975C8.24241 9.67403 7.92441 10.4598 7.93765 11.275C7.93765 12.9643 9.30712 14.3338 10.9964 14.3338C12.6858 14.3338 14.0552 12.9643 14.0552 11.275C14.0552 9.58568 12.6858 8.21622 10.9964 8.21622ZM9.57582 12.6972C9.95205 13.0736 10.4652 13.2808 10.9974 13.2712V13.2701C11.5293 13.2797 12.0423 13.0727 12.4185 12.6965C12.7947 12.3203 13.0018 11.8073 12.9921 11.2754C13.0018 10.7434 12.7947 10.2304 12.4185 9.85423C12.0423 9.47804 11.5293 9.27099 10.9974 9.28065C10.4654 9.27099 9.95242 9.47804 9.57622 9.85423C9.20003 10.2304 8.99297 10.7434 9.00264 11.2754C8.99267 11.8075 9.19959 12.3208 9.57582 12.6972ZM14.1892 7.35205C13.7854 7.35205 13.4581 7.67936 13.4581 8.08311C13.4581 8.48687 13.7854 8.81417 14.1892 8.81417C14.593 8.81417 14.9203 8.48687 14.9203 8.08311C14.9167 7.68086 14.5915 7.35564 14.1892 7.35205Z" fill="white"/>
</g>
</svg>
