<svg width="170" height="56" viewBox="0 0 170 56" fill="none" xmlns="http://www.w3.org/2000/svg">
<path d="M62.9999 17.7448H67.0599C67.0599 18.6731 67.4286 19.5633 68.085 20.2197C68.7414 20.8761 69.6316 21.2448 70.5599 21.2448C71.0368 21.2735 71.5146 21.2042 71.9638 21.0412C72.413 20.8782 72.8241 20.6249 73.1716 20.297C73.5192 19.9691 73.796 19.5735 73.9848 19.1345C74.1737 18.6956 74.2707 18.2227 74.2699 17.7448V1.9248H78.2249V17.7448C78.0933 19.6927 77.2267 21.5179 75.8004 22.8511C74.3742 24.1843 72.4947 24.926 70.5424 24.926C68.59 24.926 66.7105 24.1843 65.2843 22.8511C63.858 21.5179 62.9914 19.6927 62.8599 17.7448H62.9999Z" fill="#231F20"/>
<path d="M99.5402 7.91029V24.8503H95.8302V22.2253C95.152 23.1668 94.2575 23.9317 93.2221 24.4555C92.1866 24.9793 91.0405 25.2467 89.8802 25.2353C88.7422 25.2273 87.6175 24.989 86.574 24.5349C85.5304 24.0808 84.5896 23.4202 83.8081 22.5929C83.0265 21.7656 82.4205 20.7887 82.0265 19.721C81.6324 18.6533 81.4585 17.5169 81.5152 16.3803C81.4536 15.2408 81.6239 14.1006 82.0158 13.0288C82.4076 11.957 83.0128 10.9759 83.7948 10.1448C84.5769 9.3137 85.5194 8.64992 86.5654 8.19365C87.6114 7.73738 88.7391 7.4981 89.8802 7.49029C91.0431 7.48573 92.1901 7.75981 93.2253 8.28959C94.2605 8.81936 95.1537 9.58942 95.8302 10.5353V7.91029H99.5402ZM95.8302 16.3803C95.8302 14.9879 95.2771 13.6525 94.2925 12.668C93.3079 11.6834 91.9726 11.1303 90.5802 11.1303C89.1878 11.1303 87.8525 11.6834 86.8679 12.668C85.8833 13.6525 85.3302 14.9879 85.3302 16.3803C85.3302 17.7727 85.8833 19.108 86.8679 20.0926C87.8525 21.0772 89.1878 21.6303 90.5802 21.6303C91.9726 21.6303 93.3079 21.0772 94.2925 20.0926C95.2771 19.108 95.8302 17.7727 95.8302 16.3803Z" fill="#231F20"/>
<path d="M122.01 16.3802C122.066 17.5169 121.892 18.6533 121.498 19.7209C121.104 20.7886 120.498 21.7655 119.717 22.5928C118.935 23.4201 117.994 24.0807 116.951 24.5348C115.907 24.9889 114.783 25.2272 113.645 25.2352C112.479 25.2494 111.327 24.9834 110.285 24.4596C109.244 23.9358 108.343 23.1695 107.66 22.2252V31.1502H103.95V7.91022H107.66V10.5002C108.342 9.55162 109.241 8.78015 110.282 8.25038C111.323 7.72061 112.476 7.44795 113.645 7.45522C114.787 7.46773 115.916 7.71138 116.962 8.1715C118.008 8.63162 118.95 9.29869 119.732 10.1325C120.513 10.9664 121.118 11.9498 121.51 13.0235C121.901 14.0972 122.071 15.239 122.01 16.3802ZM118.16 16.3802C118.16 14.9878 117.607 13.6525 116.622 12.6679C115.637 11.6833 114.302 11.1302 112.91 11.1302C111.517 11.1302 110.182 11.6833 109.197 12.6679C108.213 13.6525 107.66 14.9878 107.66 16.3802C107.66 17.7726 108.213 19.108 109.197 20.0925C110.182 21.0771 111.517 21.6302 112.91 21.6302C114.302 21.6302 115.637 21.0771 116.622 20.0925C117.607 19.108 118.16 17.7726 118.16 16.3802Z" fill="#231F20"/>
<path d="M134.12 11.3053H130.62V24.8503H126.77V11.3053H123.27V7.80527H126.77V3.71027L130.515 2.90527V7.91027H134.015L134.12 11.3053Z" fill="#231F20"/>
<path d="M136.5 2.69445C136.5 2.38191 136.562 2.07242 136.681 1.78367C136.801 1.49491 136.976 1.23254 137.197 1.01154C137.418 0.790536 137.68 0.615226 137.969 0.49562C138.258 0.376014 138.567 0.314453 138.88 0.314453C139.193 0.314453 139.502 0.376014 139.791 0.49562C140.08 0.615226 140.342 0.790536 140.563 1.01154C140.784 1.23254 140.959 1.49491 141.079 1.78367C141.198 2.07242 141.26 2.38191 141.26 2.69445C141.26 3.32567 141.009 3.93103 140.563 4.37737C140.117 4.8237 139.511 5.07445 138.88 5.07445C138.249 5.07445 137.643 4.8237 137.197 4.37737C136.751 3.93103 136.5 3.32567 136.5 2.69445ZM137.025 7.90945H140.735V24.8495H137.095L137.025 7.90945Z" fill="#231F20"/>
<path d="M161.385 14.1749V24.8499H157.5V15.3999C157.546 14.8319 157.469 14.2607 157.276 13.7246C157.083 13.1886 156.777 12.7002 156.379 12.2923C155.981 11.8845 155.5 11.5665 154.969 11.36C154.438 11.1534 153.869 11.063 153.3 11.0949C152.709 11.0492 152.115 11.1302 151.558 11.3325C151.001 11.5347 150.493 11.8536 150.069 12.2677C149.645 12.6818 149.314 13.1817 149.099 13.7339C148.883 14.2862 148.788 14.878 148.82 15.4699V24.8499H145.215V7.90989H148.96V10.2549C149.626 9.37761 150.49 8.66997 151.481 8.18951C152.473 7.70906 153.563 7.46935 154.665 7.48989C155.559 7.43398 156.455 7.56831 157.293 7.88401C158.131 8.1997 158.893 8.68959 159.528 9.32134C160.163 9.95308 160.657 10.7123 160.977 11.549C161.297 12.3856 161.436 13.2806 161.385 14.1749Z" fill="#231F20"/>
<path d="M164.99 2.69445C164.99 2.06324 165.241 1.45788 165.687 1.01154C166.133 0.565202 166.739 0.314453 167.37 0.314453C168.001 0.314453 168.606 0.565202 169.053 1.01154C169.499 1.45788 169.75 2.06324 169.75 2.69445C169.75 3.32567 169.499 3.93103 169.053 4.37737C168.606 4.8237 168.001 5.07445 167.37 5.07445C166.739 5.07445 166.133 4.8237 165.687 4.37737C165.241 3.93103 164.99 3.32567 164.99 2.69445ZM165.48 7.90945H169.225V24.8495H165.48V7.90945Z" fill="#231F20"/>
<path d="M119.805 35.7347V37.2747H114.765V27.7197H116.41V35.7347H119.805Z" fill="#231F20"/>
<path d="M120.505 33.7402C120.484 32.98 120.691 32.231 121.099 31.5892C121.506 30.9474 122.097 30.4421 122.794 30.1382C123.491 29.8343 124.263 29.7457 125.011 29.8836C125.758 30.0216 126.448 30.38 126.991 30.9126C127.533 31.4453 127.905 32.128 128.056 32.8731C128.208 33.6182 128.134 34.3917 127.843 35.0943C127.553 35.7969 127.058 36.3966 126.424 36.8164C125.79 37.2361 125.045 37.4569 124.285 37.4502C123.791 37.4643 123.298 37.3786 122.838 37.198C122.378 37.0175 121.958 36.7459 121.605 36.3995C121.253 36.0531 120.973 35.639 120.784 35.182C120.595 34.7251 120.5 34.2347 120.505 33.7402ZM126.49 33.7402C126.49 33.3041 126.361 32.8777 126.118 32.5151C125.876 32.1525 125.532 31.8699 125.129 31.703C124.726 31.5361 124.282 31.4925 123.855 31.5775C123.427 31.6626 123.034 31.8726 122.726 32.181C122.417 32.4894 122.207 32.8823 122.122 33.31C122.037 33.7377 122.081 34.1811 122.248 34.584C122.415 34.9869 122.697 35.3313 123.06 35.5736C123.422 35.8158 123.849 35.9452 124.285 35.9452C124.576 35.9499 124.865 35.8961 125.134 35.787C125.404 35.6778 125.649 35.5156 125.855 35.3099C126.06 35.1042 126.223 34.8592 126.332 34.5895C126.441 34.3199 126.495 34.031 126.49 33.7402Z" fill="#231F20"/>
<path d="M136.5 30.2044V36.5044C136.5 37.4327 136.131 38.3229 135.475 38.9793C134.819 39.6357 133.928 40.0044 133 40.0044C132.205 40.0296 131.425 39.7833 130.789 39.3062C130.153 38.829 129.698 38.1495 129.5 37.3794H131.11C131.273 37.7366 131.542 38.0353 131.88 38.2355C132.217 38.4357 132.608 38.5278 133 38.4994C133.28 38.5099 133.559 38.4614 133.819 38.3569C134.079 38.2523 134.314 38.0942 134.509 37.8928C134.704 37.6914 134.854 37.4512 134.95 37.1878C135.046 36.9245 135.085 36.6439 135.065 36.3644V36.0494C134.775 36.4335 134.4 36.7444 133.968 36.9571C133.536 37.1698 133.061 37.2785 132.58 37.2744C131.619 37.2744 130.698 36.8928 130.019 36.2134C129.339 35.534 128.958 34.6127 128.958 33.6519C128.958 32.6912 129.339 31.7698 130.019 31.0904C130.698 30.4111 131.619 30.0294 132.58 30.0294C133.061 30.0253 133.536 30.134 133.968 30.3467C134.4 30.5595 134.775 30.8703 135.065 31.2544V30.2044H136.5ZM134.96 33.7044C134.967 33.2669 134.844 32.8372 134.606 32.47C134.368 32.1028 134.026 31.8147 133.623 31.6425C133.221 31.4702 132.777 31.4215 132.347 31.5026C131.917 31.5837 131.521 31.7909 131.209 32.0978C130.897 32.4047 130.683 32.7975 130.595 33.2262C130.507 33.6549 130.549 34.1 130.715 34.5049C130.881 34.9099 131.163 35.2564 131.526 35.5002C131.89 35.7441 132.317 35.8744 132.755 35.8744C133.055 35.8938 133.355 35.8509 133.637 35.7483C133.919 35.6458 134.177 35.4859 134.394 35.2786C134.611 35.0714 134.783 34.8214 134.898 34.5444C135.014 34.2674 135.07 33.9695 135.065 33.6694L134.96 33.7044Z" fill="#231F20"/>
<path d="M138.215 28.0002C138.21 27.8702 138.232 27.7406 138.28 27.6194C138.327 27.4983 138.399 27.3883 138.491 27.2963C138.583 27.2043 138.693 27.1323 138.814 27.0848C138.935 27.0373 139.065 27.0153 139.195 27.0202C139.324 27.0202 139.451 27.0456 139.57 27.0948C139.689 27.1441 139.797 27.2162 139.888 27.3072C139.979 27.3982 140.051 27.5063 140.1 27.6252C140.15 27.7441 140.175 27.8715 140.175 28.0002C140.175 28.1289 140.15 28.2563 140.1 28.3752C140.051 28.4941 139.979 28.6022 139.888 28.6932C139.797 28.7842 139.689 28.8564 139.57 28.9056C139.451 28.9549 139.324 28.9802 139.195 28.9802C139.065 28.9851 138.935 28.9631 138.814 28.9156C138.693 28.8681 138.583 28.7961 138.491 28.7041C138.399 28.6121 138.327 28.5021 138.28 28.381C138.232 28.2598 138.21 28.1302 138.215 28.0002ZM138.425 30.1702H140V37.1702H138.46L138.425 30.1702Z" fill="#231F20"/>
<path d="M141.365 35.2096H142.975C142.975 35.3307 143 35.4505 143.048 35.5615C143.096 35.6725 143.167 35.7722 143.256 35.8545C143.345 35.9367 143.449 35.9996 143.564 36.0392C143.678 36.0789 143.8 36.0943 143.92 36.0846C144.138 36.1044 144.354 36.0388 144.524 35.9016C144.694 35.7644 144.804 35.5664 144.83 35.3496C144.83 34.8246 144.305 34.5446 143.57 34.3696C142.835 34.1946 141.47 33.5646 141.47 32.1646C141.478 31.8624 141.549 31.5652 141.677 31.2913C141.805 31.0174 141.987 30.7728 142.214 30.5725C142.44 30.3723 142.706 30.2208 142.993 30.1274C143.281 30.034 143.584 30.0007 143.885 30.0296C144.187 30.0107 144.489 30.0521 144.775 30.1514C145.06 30.2507 145.323 30.4059 145.548 30.608C145.773 30.81 145.955 31.0548 146.084 31.3281C146.214 31.6014 146.287 31.8977 146.3 32.1996H144.725C144.699 31.9921 144.593 31.8031 144.43 31.6724C144.266 31.5417 144.058 31.4798 143.85 31.4996C143.751 31.49 143.651 31.5008 143.556 31.5312C143.46 31.5616 143.373 31.6111 143.297 31.6766C143.222 31.7421 143.161 31.8222 143.117 31.9122C143.074 32.0021 143.05 32.0999 143.045 32.1996C143.045 32.6896 143.57 32.9696 144.34 33.1796C145.11 33.3896 146.405 34.0546 146.405 35.3146C146.402 35.6322 146.333 35.9457 146.201 36.2348C146.07 36.5239 145.879 36.7822 145.642 36.9932C145.404 37.2042 145.125 37.3632 144.823 37.4599C144.52 37.5566 144.201 37.5889 143.885 37.5546C143.563 37.5788 143.239 37.536 142.934 37.429C142.629 37.322 142.349 37.1531 142.113 36.9329C141.876 36.7127 141.688 36.4459 141.559 36.1494C141.43 35.8528 141.364 35.5329 141.365 35.2096Z" fill="#231F20"/>
<path d="M151.62 31.5H150.115V37.17H148.575V31.5H147V30.1H148.435V28.35L150.115 28V30.065H151.62V31.5Z" fill="#231F20"/>
<path d="M152.67 27.9995C152.67 27.8057 152.727 27.6162 152.835 27.4551C152.942 27.2939 153.096 27.1683 153.275 27.0941C153.454 27.02 153.651 27.0005 153.841 27.0384C154.031 27.0762 154.206 27.1695 154.343 27.3066C154.48 27.4436 154.573 27.6182 154.611 27.8083C154.649 27.9984 154.629 28.1955 154.555 28.3746C154.481 28.5536 154.355 28.7067 154.194 28.8144C154.033 28.9221 153.843 28.9795 153.65 28.9795C153.52 28.9844 153.39 28.9625 153.269 28.9149C153.148 28.8674 153.038 28.7954 152.946 28.7034C152.854 28.6114 152.782 28.5014 152.734 28.3803C152.687 28.2592 152.665 28.1295 152.67 27.9995ZM152.88 30.1695H154.42V37.1695H152.88V30.1695Z" fill="#231F20"/>
<path d="M155.82 33.7401C155.82 33.2439 155.919 32.7527 156.112 32.2956C156.305 31.8385 156.588 31.4248 156.943 31.0789C157.299 30.7329 157.72 30.4619 158.183 30.2818C158.645 30.1016 159.139 30.016 159.635 30.0301C160.536 29.9706 161.424 30.2615 162.116 30.842C162.807 31.4225 163.247 32.2476 163.345 33.1451H161.735C161.611 32.6827 161.338 32.2741 160.959 31.9829C160.579 31.6917 160.113 31.5343 159.635 31.5351C159.223 31.5307 158.819 31.6416 158.467 31.8552C158.116 32.0687 157.831 32.3764 157.645 32.7435C157.459 33.1105 157.379 33.5223 157.415 33.9322C157.451 34.3421 157.601 34.7338 157.848 35.0629C158.095 35.3921 158.429 35.6456 158.812 35.7948C159.195 35.9441 159.613 35.983 160.017 35.9073C160.422 35.8315 160.797 35.6442 161.101 35.3663C161.404 35.0885 161.624 34.7313 161.735 34.3351H163.345C163.247 35.2325 162.807 36.0577 162.116 36.6381C161.424 37.2186 160.536 37.5095 159.635 37.4501C159.139 37.4641 158.645 37.3785 158.183 37.1984C157.72 37.0182 157.299 36.7472 156.943 36.4013C156.588 36.0553 156.305 35.6416 156.112 35.1845C155.919 34.7274 155.82 34.2362 155.82 33.7401Z" fill="#231F20"/>
<path d="M164.255 35.2097H165.83C165.834 35.3293 165.862 35.4467 165.912 35.5554C165.962 35.6641 166.033 35.7619 166.121 35.8432C166.209 35.9244 166.312 35.9876 166.424 36.029C166.536 36.0705 166.655 36.0894 166.775 36.0847C166.883 36.0993 166.994 36.0917 167.099 36.0622C167.205 36.0327 167.303 35.982 167.388 35.9132C167.473 35.8444 167.544 35.7589 167.595 35.662C167.646 35.5652 167.676 35.4589 167.685 35.3497C167.685 34.8247 167.16 34.5447 166.46 34.3697C165.76 34.1947 164.36 33.5647 164.36 32.1647C164.363 31.8641 164.429 31.5676 164.553 31.2938C164.677 31.02 164.857 30.7749 165.081 30.5742C165.304 30.3735 165.568 30.2214 165.853 30.1277C166.139 30.034 166.441 30.0006 166.74 30.0297C167.043 30.0108 167.348 30.0519 167.635 30.1508C167.923 30.2497 168.188 30.4044 168.415 30.606C168.643 30.8076 168.829 31.0522 168.962 31.3257C169.094 31.5992 169.172 31.8962 169.19 32.1997H167.58C167.554 31.9987 167.453 31.815 167.297 31.6852C167.141 31.5555 166.942 31.4892 166.74 31.4997C166.641 31.4901 166.54 31.5009 166.445 31.5313C166.35 31.5617 166.262 31.6112 166.187 31.6767C166.112 31.7422 166.05 31.8223 166.007 31.9123C165.964 32.0022 165.939 32.1 165.935 32.1997C165.935 32.6897 166.425 32.9697 167.195 33.1797C167.965 33.3897 169.26 34.0547 169.26 35.3147C169.262 35.6307 169.197 35.9435 169.069 36.2326C168.942 36.5216 168.754 36.7804 168.52 36.992C168.285 37.2035 168.008 37.3631 167.708 37.46C167.407 37.557 167.089 37.5893 166.775 37.5547C166.453 37.5789 166.129 37.5361 165.824 37.4291C165.519 37.3221 165.239 37.1532 165.002 36.933C164.766 36.7128 164.577 36.446 164.449 36.1495C164.32 35.8529 164.254 35.533 164.255 35.2097Z" fill="#231F20"/>
<path d="M52.7449 38.1149C53.5154 38.1149 54.2543 37.8088 54.7991 37.264C55.3439 36.7192 55.6499 35.9804 55.6499 35.2099V3.9199C55.6713 3.78549 55.6459 3.64782 55.5781 3.52983C55.5103 3.41185 55.404 3.3207 55.2771 3.27157C55.1502 3.22244 55.0102 3.2183 54.8806 3.25985C54.751 3.3014 54.6396 3.38613 54.5649 3.4999L32.6549 37.1699C32.6004 37.2642 32.5713 37.371 32.5703 37.4798C32.5694 37.5887 32.5967 37.696 32.6496 37.7912C32.7025 37.8864 32.7791 37.9662 32.8721 38.023C32.965 38.0797 33.0711 38.1114 33.1799 38.1149H52.7449Z" fill="#F6921E"/>
<path d="M17.5 2.90487V22.5049C17.5026 22.6098 17.5329 22.7122 17.5878 22.8016C17.6427 22.891 17.7203 22.9643 17.8127 23.0141C17.9051 23.0638 18.0091 23.0883 18.114 23.0849C18.2188 23.0815 18.321 23.0505 18.41 22.9949L52.08 1.11987C52.1789 1.0406 52.2516 0.933352 52.2885 0.812136C52.3255 0.690921 52.3251 0.561372 52.2873 0.440411C52.2495 0.31945 52.1761 0.212701 52.0766 0.134108C51.9772 0.0555146 51.8564 0.00873062 51.73 -0.000133007H20.475C20.0877 -0.00946923 19.7024 0.0587731 19.3418 0.200577C18.9812 0.342381 18.6527 0.554882 18.3755 0.825571C18.0982 1.09626 17.878 1.41967 17.7276 1.77676C17.5773 2.13385 17.4999 2.51741 17.5 2.90487Z" fill="#F05A28"/>
<path d="M-8.4769e-05 37.9394C0.0154503 37.9917 0.0479835 38.0373 0.0923616 38.069C0.13674 38.1007 0.190426 38.1167 0.244915 38.1144H15.0499C15.2109 38.1055 15.3623 38.0352 15.4729 37.918C15.5836 37.8008 15.6452 37.6456 15.6449 37.4844V28.6644C15.6466 28.5539 15.6174 28.4451 15.5607 28.3503C15.504 28.2554 15.422 28.1782 15.3239 28.1273C15.2258 28.0765 15.1154 28.0539 15.0052 28.0622C14.895 28.0706 14.7893 28.1094 14.6999 28.1744L-8.4769e-05 37.6594C-0.0246599 37.702 -0.0375977 37.7503 -0.0375977 37.7994C-0.0375977 37.8486 -0.0246599 37.8969 -8.4769e-05 37.9394Z" fill="#F6921E"/>
<path d="M18.1649 40.3545C18.0838 40.3544 18.0034 40.3708 17.9289 40.4029C17.8543 40.435 17.7871 40.4819 17.7313 40.541C17.6756 40.6 17.6325 40.6698 17.6048 40.746C17.577 40.8223 17.5652 40.9035 17.5699 40.9845V55.7545C17.5484 55.7917 17.5371 55.834 17.5371 55.877C17.5371 55.92 17.5484 55.9623 17.5699 55.9995C17.7449 55.9995 17.8149 55.9995 17.8499 55.9995L27.5099 41.2995C27.5644 41.2052 27.5936 41.0984 27.5945 40.9896C27.5954 40.8807 27.5681 40.7734 27.5153 40.6782C27.4624 40.583 27.3857 40.5032 27.2928 40.4464C27.1998 40.3897 27.0938 40.358 26.9849 40.3545H18.1649Z" fill="#F05A28"/>
<path d="M17.4996 26.2844V37.4844C17.4948 37.5655 17.5066 37.6466 17.5344 37.7229C17.5622 37.7992 17.6052 37.869 17.661 37.928C17.7167 37.987 17.7839 38.034 17.8585 38.066C17.9331 38.0981 18.0134 38.1146 18.0946 38.1144H29.2946C29.3937 38.1153 29.4913 38.0899 29.5774 38.0407C29.6635 37.9915 29.735 37.9203 29.7846 37.8344L53.3745 2.83444C53.4254 2.74151 53.4447 2.63461 53.4296 2.52977C53.4146 2.42493 53.366 2.32779 53.2911 2.25289C53.2162 2.178 53.1191 2.12939 53.0142 2.11434C52.9094 2.0993 52.8025 2.11863 52.7095 2.16944L17.7096 25.8994C17.5931 25.9964 17.518 26.1341 17.4996 26.2844Z" fill="#EE4033"/>
</svg>
