<svg width="512" height="136" viewBox="0 0 512 136" fill="none" xmlns="http://www.w3.org/2000/svg">
<path opacity="0.4" d="M383.288 10C383.288 4.47715 387.765 0 393.288 0H501.288C506.811 0 511.288 4.47715 511.288 10V41C511.288 46.5228 506.811 51 501.288 51H393.288C387.765 51 383.288 46.5228 383.288 41V10Z" fill="#EF6351"/>
<path d="M419.041 38.5454V13.0908H420.671V38.5454H419.041ZM424.141 20.9857C424.035 20.0444 423.598 19.3153 422.829 18.7982C422.06 18.2745 421.092 18.0127 419.926 18.0127C419.09 18.0127 418.368 18.1453 417.758 18.4104C417.148 18.6689 416.674 19.0269 416.336 19.4843C416.005 19.935 415.839 20.4488 415.839 21.0255C415.839 21.5094 415.952 21.927 416.177 22.2783C416.409 22.6296 416.711 22.9246 417.082 23.1633C417.46 23.3953 417.864 23.5908 418.295 23.7499C418.726 23.9024 419.14 24.0283 419.538 24.1278L421.526 24.6448C422.176 24.8039 422.842 25.0193 423.525 25.2911C424.208 25.5629 424.841 25.9208 425.424 26.365C426.007 26.8091 426.478 27.3593 426.836 28.0155C427.201 28.6718 427.383 29.4573 427.383 30.3721C427.383 31.5255 427.085 32.5496 426.488 33.4445C425.898 34.3394 425.04 35.0454 423.913 35.5624C422.792 36.0795 421.437 36.338 419.846 36.338C418.321 36.338 417.002 36.096 415.889 35.6121C414.775 35.1282 413.903 34.4421 413.274 33.5539C412.644 32.659 412.296 31.5984 412.229 30.3721H415.312C415.372 31.1079 415.61 31.721 416.028 32.2116C416.452 32.6955 416.992 33.0567 417.649 33.2954C418.311 33.5274 419.037 33.6434 419.826 33.6434C420.694 33.6434 421.467 33.5075 422.143 33.2357C422.826 32.9573 423.363 32.5728 423.754 32.0823C424.145 31.5851 424.34 31.0051 424.34 30.3422C424.34 29.739 424.168 29.2452 423.823 28.8607C423.485 28.4762 423.024 28.1581 422.441 27.9062C421.864 27.6543 421.212 27.4322 420.482 27.24L418.076 26.5837C416.445 26.1396 415.153 25.4867 414.198 24.6249C413.25 23.7632 412.776 22.623 412.776 21.2045C412.776 20.0312 413.095 19.007 413.731 18.132C414.367 17.257 415.229 16.5776 416.316 16.0937C417.403 15.6031 418.63 15.3579 419.995 15.3579C421.374 15.3579 422.59 15.5998 423.644 16.0837C424.705 16.5676 425.54 17.2338 426.15 18.0823C426.76 18.9242 427.078 19.892 427.104 20.9857H424.141Z" fill="#161616"/>
<path d="M430.348 32.0226V29.5368L439.148 15.6363H441.107V19.2954H439.864L433.57 29.2584V29.4175H445.631V32.0226H430.348ZM440.003 35.9999V31.267L440.023 30.1334V15.6363H442.937V35.9999H440.003Z" fill="#161616"/>
<path d="M448.669 32.0226V29.5368L457.468 15.6363H459.427V19.2954H458.184L451.89 29.2584V29.4175H463.951V32.0226H448.669ZM458.324 35.9999V31.267L458.343 30.1334V15.6363H461.257V35.9999H458.324Z" fill="#161616"/>
<path d="M467.695 35.9999V15.6363H475.152C476.598 15.6363 477.794 15.8749 478.742 16.3522C479.69 16.8228 480.399 17.4625 480.87 18.2712C481.34 19.0733 481.576 19.9781 481.576 20.9857C481.576 21.8342 481.42 22.5501 481.108 23.1334C480.797 23.7101 480.379 24.1742 479.856 24.5255C479.339 24.8702 478.768 25.1221 478.145 25.2812V25.48C478.821 25.5132 479.481 25.7319 480.124 26.1363C480.774 26.534 481.311 27.1008 481.735 27.8366C482.159 28.5724 482.371 29.4672 482.371 30.5212C482.371 31.5619 482.126 32.4966 481.635 33.3252C481.151 34.1472 480.402 34.8001 479.388 35.284C478.374 35.7613 477.078 35.9999 475.5 35.9999H467.695ZM470.767 33.365H475.202C476.674 33.365 477.728 33.0799 478.364 32.5099C479 31.9398 479.319 31.2272 479.319 30.3721C479.319 29.7291 479.156 29.1391 478.831 28.6022C478.507 28.0653 478.043 27.6377 477.439 27.3195C476.843 27.0013 476.133 26.8422 475.312 26.8422H470.767V33.365ZM470.767 24.4459H474.884C475.573 24.4459 476.193 24.3134 476.743 24.0482C477.3 23.7831 477.741 23.4118 478.066 22.9346C478.397 22.4507 478.563 21.8806 478.563 21.2243C478.563 20.3825 478.268 19.6765 477.678 19.1064C477.088 18.5364 476.183 18.2513 474.964 18.2513H470.767V24.4459Z" fill="#161616"/>
<path d="M3.888 70V53.944H0V46.744H3.888V41.56H0V34.36H3.888V18.88H13.176L24.048 34.36H36.864V18.88H47.232V34.36H54.144V41.56H47.232V46.744H54.144V53.944H47.232V70H37.944L26.712 53.944H14.256V70H3.888ZM14.256 46.744H21.672L18.072 41.56H14.256V46.744ZM32.688 46.744H36.864V41.56H29.088L32.688 46.744Z" fill="white"/>
<path d="M83.081 48.8359C87.2997 44.3359 89.4091 39.6953 89.4091 34.8789C89.4091 30.4492 87.9325 26.7578 84.9443 23.8398C81.956 20.9219 78.2646 19.4453 73.7997 19.4453C69.3349 19.4453 65.5732 20.9219 62.5849 23.875C59.5966 26.8633 58.0849 30.5195 58.0849 34.8789H69.5458C69.5458 32.3477 71.3036 30.625 73.7997 30.625C76.1903 30.625 77.9482 32.4883 77.9482 34.8789C77.9482 37.1641 76.4013 40.082 73.2724 43.7031L57.8739 60.9297V70H89.62V59.4883H73.413L83.081 48.8359Z" fill="white"/>
<path d="M121.19 48.8359C125.409 44.3359 127.518 39.6953 127.518 34.8789C127.518 30.4492 126.042 26.7578 123.054 23.8398C120.065 20.9219 116.374 19.4453 111.909 19.4453C107.444 19.4453 103.683 20.9219 100.694 23.875C97.706 26.8633 96.1943 30.5195 96.1943 34.8789H107.655C107.655 32.3477 109.413 30.625 111.909 30.625C114.3 30.625 116.058 32.4883 116.058 34.8789C116.058 37.1641 114.511 40.082 111.382 43.7031L95.9833 60.9297V70H127.729V59.4883H111.522L121.19 48.8359Z" fill="white"/>
<path d="M146.186 68.6641C147.558 67.293 148.261 65.6055 148.261 63.5312C148.261 61.5273 147.558 59.8047 146.186 58.4336C144.78 57.0625 143.058 56.3945 140.983 56.3945C138.909 56.3945 137.222 57.0625 135.85 58.4336C134.479 59.8047 133.776 61.5273 133.776 63.5312C133.776 65.6055 134.479 67.293 135.85 68.6641C137.222 70.0352 138.909 70.7031 140.983 70.7031C143.058 70.7031 144.78 70.0352 146.186 68.6641Z" fill="white"/>
<path d="M179.866 44.2305C183.558 41.4883 185.421 37.9023 185.421 33.5078C185.421 29.5703 183.909 26.2305 180.886 23.5234C177.862 20.8164 174.065 19.4453 169.495 19.4453C164.925 19.4453 161.128 20.8164 158.14 23.5234C155.151 26.2305 153.64 29.5703 153.64 33.5078C153.64 37.9023 155.468 41.4883 159.124 44.2305C154.87 47.0078 152.725 50.9102 152.725 55.9023C152.725 60.1562 154.308 63.7422 157.507 66.5898C160.706 69.4375 164.679 70.8789 169.495 70.8789C174.311 70.8789 178.319 69.4375 181.518 66.5547C184.718 63.6719 186.335 60.1211 186.335 55.9023C186.335 50.9102 184.19 47.0078 179.866 44.2305ZM172.659 31.4336C173.538 32.2773 173.96 33.332 173.96 34.6328C173.96 35.9336 173.538 37.0234 172.659 37.8672C171.78 38.7461 170.725 39.168 169.495 39.168C168.265 39.168 167.21 38.7461 166.401 37.8672C165.593 37.0234 165.171 35.9336 165.171 34.6328C165.171 33.332 165.593 32.2773 166.401 31.4336C167.21 30.5898 168.265 30.168 169.495 30.168C170.725 30.168 171.78 30.5898 172.659 31.4336ZM169.495 60.1211C168.018 60.1211 166.753 59.5938 165.733 58.5742C164.679 57.5547 164.151 56.2891 164.151 54.7773C164.151 53.3008 164.679 52.0352 165.733 51.0156C166.753 49.9961 168.018 49.4688 169.495 49.4688C171.042 49.4688 172.343 49.9609 173.362 50.9805C174.382 52 174.909 53.2656 174.909 54.7773C174.909 56.3242 174.382 57.5898 173.362 58.6094C172.343 59.6289 171.042 60.1211 169.495 60.1211Z" fill="white"/>
<path d="M190.167 20.3242V30.8359H202.472V70H213.651V30.8359H225.956V20.3242H190.167Z" fill="white"/>
<path d="M238.507 33.2969H227.995V70H238.507V52.8789C238.507 47.1133 242.233 43.4922 248.737 43.4922V32.6992C244.765 32.6992 241.354 34.5273 238.507 38.1836V33.2969Z" fill="white"/>
<path d="M259.46 28.5859C261.323 28.5859 262.905 27.9883 264.171 26.7578C265.401 25.5273 266.034 23.9805 266.034 22.1172C266.034 20.2891 265.401 18.7773 264.171 17.5469C262.905 16.3164 261.323 15.7188 259.46 15.7188C257.632 15.7188 256.085 16.3164 254.854 17.5469C253.624 18.7773 252.991 20.2891 252.991 22.1172C252.991 23.9805 253.624 25.5273 254.854 26.7578C256.085 27.9883 257.632 28.5859 259.46 28.5859ZM264.733 70V33.2969H254.222V70H264.733Z" fill="white"/>
<path d="M283.577 70V18.1445H273.065V70H283.577Z" fill="white"/>
<path d="M302.421 70V18.1445H291.909V70H302.421Z" fill="white"/>
<path d="M315.991 28.5859C317.854 28.5859 319.436 27.9883 320.702 26.7578C321.933 25.5273 322.565 23.9805 322.565 22.1172C322.565 20.2891 321.933 18.7773 320.702 17.5469C319.436 16.3164 317.854 15.7188 315.991 15.7188C314.163 15.7188 312.616 16.3164 311.386 17.5469C310.155 18.7773 309.522 20.2891 309.522 22.1172C309.522 23.9805 310.155 25.5273 311.386 26.7578C312.616 27.9883 314.163 28.5859 315.991 28.5859ZM321.265 70V33.2969H310.753V70H321.265Z" fill="white"/>
<path d="M361.378 65.3594C365.14 61.668 367.038 57.0977 367.038 51.6133C367.038 46.1641 365.14 41.5938 361.378 37.9023C357.616 34.2461 352.905 32.418 347.245 32.418C341.585 32.418 336.839 34.2461 333.077 37.9023C329.315 41.5938 327.417 46.1641 327.417 51.6133C327.417 57.0977 329.315 61.668 333.077 65.3594C336.839 69.0508 341.585 70.8789 347.245 70.8789C352.905 70.8789 357.616 69.0508 361.378 65.3594ZM340.811 58.1172C339.089 56.3945 338.245 54.2148 338.245 51.6133C338.245 49.0469 339.089 46.8672 340.811 45.1445C342.499 43.4219 344.643 42.5781 347.245 42.5781C349.811 42.5781 351.956 43.4219 353.679 45.1445C355.401 46.8672 356.245 49.0469 356.245 51.6133C356.245 54.2148 355.401 56.3945 353.679 58.1172C351.956 59.8398 349.811 60.7188 347.245 60.7188C344.643 60.7188 342.499 59.8398 340.811 58.1172Z" fill="white"/>
<path d="M394.917 32.418C390.311 32.418 386.585 34.0352 383.772 37.3047V33.2969H373.261V70H383.772V50.0664C383.772 47.7812 384.475 45.9883 385.917 44.6172C387.323 43.2461 389.151 42.5781 391.401 42.5781C393.511 42.5781 395.233 43.2461 396.534 44.582C397.835 45.9531 398.468 47.7109 398.468 49.9258V70H408.979V46.375C408.979 42.1562 407.679 38.7812 405.112 36.2148C402.546 33.6836 399.136 32.418 394.917 32.418Z" fill="white"/>
<path d="M9.70988 93.5859C11.5732 93.5859 13.1552 92.9883 14.4208 91.7578C15.6513 90.5273 16.2841 88.9805 16.2841 87.1172C16.2841 85.2891 15.6513 83.7773 14.4208 82.5469C13.1552 81.3164 11.5732 80.7188 9.70988 80.7188C7.88175 80.7188 6.33488 81.3164 5.10441 82.5469C3.87394 83.7773 3.24113 85.2891 3.24113 87.1172C3.24113 88.9805 3.87394 90.5273 5.10441 91.7578C6.33488 92.9883 7.88175 93.5859 9.70988 93.5859ZM14.9833 135V98.2969H4.47159V135H14.9833Z" fill="white"/>
<path d="M44.9716 97.418C40.3661 97.418 36.6396 99.0352 33.8271 102.305V98.2969H23.3153V135H33.8271V115.066C33.8271 112.781 34.5302 110.988 35.9716 109.617C37.3778 108.246 39.206 107.578 41.456 107.578C43.5653 107.578 45.288 108.246 46.5888 109.582C47.8896 110.953 48.5224 112.711 48.5224 114.926V135H59.0341V111.375C59.0341 107.156 57.7333 103.781 55.1669 101.215C52.6005 98.6836 49.1903 97.418 44.9716 97.418Z" fill="white"/>
<path d="M106.495 113.836C110.714 109.336 112.823 104.695 112.823 99.8789C112.823 95.4492 111.347 91.7578 108.358 88.8398C105.37 85.9219 101.679 84.4453 97.2138 84.4453C92.7489 84.4453 88.9872 85.9219 85.9989 88.875C83.0107 91.8633 81.4989 95.5195 81.4989 99.8789H92.9599C92.9599 97.3477 94.7177 95.625 97.2138 95.625C99.6044 95.625 101.362 97.4883 101.362 99.8789C101.362 102.164 99.8153 105.082 96.6864 108.703L81.288 125.93V135H113.034V124.488H96.8271L106.495 113.836Z" fill="white"/>
<path d="M138.276 135.879C144.077 135.879 148.823 133.488 152.479 128.707C156.1 123.926 157.929 117.738 157.929 110.145C157.929 102.586 156.1 96.3984 152.479 91.6172C148.823 86.8359 144.077 84.4453 138.276 84.4453C132.511 84.4453 127.8 86.8359 124.179 91.6172C120.522 96.3984 118.694 102.586 118.694 110.145C118.694 117.738 120.522 123.926 124.179 128.707C127.8 133.488 132.511 135.879 138.276 135.879ZM138.276 125.121C135.886 125.121 133.952 123.715 132.44 120.902C130.929 118.125 130.155 114.539 130.155 110.145C130.155 105.785 130.929 102.199 132.44 99.3867C133.952 96.5742 135.886 95.168 138.276 95.168C140.737 95.168 142.741 96.5742 144.253 99.3516C145.765 102.129 146.503 105.75 146.503 110.145C146.503 114.574 145.729 118.16 144.218 120.938C142.706 123.715 140.702 125.121 138.276 125.121Z" fill="white"/>
<path d="M162.499 92.3203V103.957L171.991 98.6484V135H183.136V85.3242H175.225L162.499 92.3203Z" fill="white"/>
<path d="M195.3 89.2266C191.96 92.4258 190.308 96.3984 190.308 101.145C190.308 105.715 191.749 109.582 194.667 112.711C197.55 115.875 201.171 117.598 205.53 117.879L195.37 135H208.554L221.843 112.184C224.022 108.387 225.112 104.695 225.112 101.145C225.112 96.3984 223.46 92.4258 220.12 89.2266C216.78 86.0273 212.632 84.4453 207.675 84.4453C202.718 84.4453 198.604 86.0273 195.3 89.2266ZM201.768 101.145C201.768 99.457 202.331 98.0508 203.456 96.8906C204.581 95.7305 205.987 95.168 207.675 95.168C209.362 95.168 210.768 95.7305 211.929 96.8906C213.089 98.0508 213.651 99.457 213.651 101.145C213.651 102.867 213.089 104.309 211.929 105.434C210.768 106.559 209.362 107.121 207.675 107.121C205.987 107.121 204.581 106.559 203.456 105.434C202.331 104.309 201.768 102.867 201.768 101.145Z" fill="white"/>
<path d="M236.327 133.664C237.698 132.293 238.401 130.605 238.401 128.531C238.401 126.527 237.698 124.805 236.327 123.434C234.921 122.062 233.198 121.395 231.124 121.395C229.05 121.395 227.362 122.062 225.991 123.434C224.62 124.805 223.917 126.527 223.917 128.531C223.917 130.605 224.62 132.293 225.991 133.664C227.362 135.035 229.05 135.703 231.124 135.703C233.198 135.703 234.921 135.035 236.327 133.664Z" fill="white"/>
</svg>
