<svg width="106" height="106" viewBox="0 0 106 106" fill="none" xmlns="http://www.w3.org/2000/svg">
<path d="M0 0H106V82C106 95.2548 95.2548 106 82 106H0V0Z" fill="#EF4133"/>
<path fill-rule="evenodd" clip-rule="evenodd" d="M54.0173 45.6482C53.9676 45.2822 53.6538 45 53.2741 45C52.8599 45 52.5241 45.3358 52.5241 45.75V58.9333L47.7809 54.171L47.697 54.0982C47.4038 53.8797 46.9871 53.9031 46.7203 54.1688C46.4268 54.4611 46.4258 54.9359 46.7181 55.2294L52.7324 61.2687C52.7669 61.3047 52.8049 61.3372 52.8458 61.3658C53.1387 61.5703 53.545 61.5414 53.806 61.2794L59.83 55.2294L59.9024 55.1451C60.1196 54.851 60.0945 54.4344 59.8277 54.1687C59.5342 53.8765 59.0593 53.8775 58.767 54.171L54.0241 58.9345V45.75L54.0173 45.6482Z" fill="white"/>
</svg>
