<svg width="6" height="10" viewBox="0 0 6 10" fill="none" xmlns="http://www.w3.org/2000/svg">
<path d="M0.670328 10C0.292651 10 -0.000472546 9.70688 -0.000472546 9.33484C-0.000472546 9.14882 0.0728084 8.97971 0.202459 8.85006L4.14834 4.99436L0.202459 1.14994C0.0728084 1.02029 -0.000472546 0.845547 -0.000472546 0.665163C-0.000472546 0.293123 0.292651 0 0.670328 0C0.850711 0 1.00855 0.0676437 1.13256 0.191657L5.51813 4.47576C5.67597 4.62232 5.75488 4.80271 5.75488 5C5.75488 5.19729 5.67597 5.3664 5.52377 5.5186L1.1382 9.80834C1.00855 9.93236 0.850711 10 0.670328 10Z" fill="white"/>
</svg>
